<svg id="Camada_1" data-name="Camada 1" xmlns="http://www.w3.org/2000/svg" viewBox="0 0 1920 200"><defs><style>.cls-1{opacity:0.3;}.cls-2{fill:#fff;}.cls-3{opacity:0.5;}.cls-4{opacity:0.7;}.cls-5{fill:#e6e6e6;}</style></defs><title>Sem título-2</title><g class="cls-1"><path class="cls-2" d="M.5,9.5C98.77,9.5,195.14,23,293,27.6c107,5,212-2.07,318.4-11.6,215-19.27,426.83,22.58,641.64,11.12,94.84-5.06,188.17-17.65,283.43-17.62,98.27,0,194.64,13.48,292.53,18.1,14.48.68,85.14-6.31,91.47,1.9,3.38,4.39-1.26,17.48,0,23,4.68,20.71,9.47,92.16,0,110.84-10.2,20.11,1.9,9.09-25.39,13.61-71.89,11.9-156.1,0-228.77,0H51.77c-7.18,0-45.13,5.38-50.63,0-7.38-7.2-.32-59.79-.35-69.85Z"/></g><g class="cls-3"><path class="cls-2" d="M.5,32.5C98.77,32.5,195.14,46,293,50.6c107,5,212-2.07,318.4-11.6,215-19.27,426.83,22.58,641.64,11.12,94.84-5.06,188.17-17.65,283.43-17.62,98.27,0,194.64,13.48,292.53,18.1,14.48.68,85.14-6.31,91.47,1.9,3.38,4.39-1.26,17.48,0,23,4.68,20.71,9.47,92.16,0,110.84-10.2,20.11,1.9,9.09-25.39,13.61-71.89,11.9-156.1,0-228.77,0H51.77c-7.18,0-45.13,5.38-50.63,0-7.38-7.2-.32-59.79-.35-69.85Z"/></g><g class="cls-4"><path class="cls-2" d="M.5,83.5C98.77,83.5,195.14,97,293,101.6c107,5.05,212-2.07,318.4-11.6,215-19.27,426.83,22.58,641.64,11.12,94.84-5.06,188.17-17.65,283.43-17.62,98.27,0,194.64,13.48,292.53,18.1,14.48.68,85.14-6.31,91.47,1.9,3.38,4.39-1.26,17.48,0,23,4.68,20.71,9.47,92.16,0,110.84-10.2,20.11,1.9,9.09-25.39,13.61-71.89,11.9-156.1,0-228.77,0H51.77c-7.18,0-45.13,5.38-50.63,0-7.38-7.2-.32-59.79-.35-69.85Z"/></g><path class="cls-5" d="M0,58l30.06.14c10,.08,20,.35,30.05.52s20,.67,30.05,1l15,.78c5,.25,10,.5,15,.88l15,1,15,1.25c5,.39,10,.89,15,1.36l15,1.45c19.94,2,39.86,4.14,59.83,5.74,10,.9,20,1.47,30,2.2l15,.79c5,.27,10,.55,15,.69,10,.34,20,.8,30,.93s20,.47,30,.46c40.06.31,80.15-.07,120.15-2.14l15-.82c5-.27,10-.69,15-1,10-.65,20-1.6,29.94-2.46,19.94-1.88,39.86-4.08,59.81-6.05,5-.47,10-1,15-1.43l15-1.29c5-.43,10-.73,15-1.1s10-.73,15-1l15-.82c5-.28,10-.4,15-.61l15-.56,15-.32,15-.31,15-.11,15-.11c5,0,10,0,15,.06q30.06.09,60.13,1.07l15,.55c5,.16,10,.51,15,.75s10,.49,15,.86l15,1c20,1.53,39.95,3.49,59.88,5.58s39.86,4.07,59.83,5.61l15,1.06c5,.38,10,.57,15,.87s10,.59,15,.76l15,.56q30,1,60.07,1.12c5,0,10,.11,15,.06l15-.09,15-.1,15-.3,15-.31,15-.54c5-.21,10-.32,15-.6l15-.81c5-.23,10-.6,15-1s10-.66,15-1.09L1305,71c5-.44,10-.95,15-1.42,19.94-1.95,39.86-4.15,59.82-6,10-.84,20-1.77,30-2.4,5-.33,10-.74,15-1l15-.8c40-2,80.16-2.26,120.24-1.86,10,0,20,.32,30.06.53s20,.63,30.05,1c5,.15,10,.44,15,.72l15,.83,15,1.07c5,.33,10,.76,15,1.21,20,1.68,39.9,3.9,59.83,6l15,1.51c5,.49,10,1,15,1.43l15,1.3,15,1.09c5,.39,10,.67,15,.94l15,.84c10,.36,20,.84,30,1.12s20,.52,30,.64L1920,78l-30.06-.14c-10-.08-20-.35-30-.52s-20-.67-30.05-1l-15-.77c-5-.26-10-.51-15-.88l-15-1-15-1.25c-5-.39-10-.89-15-1.36l-15-1.45c-19.94-2-39.86-4.14-59.83-5.73-10-.91-20-1.48-30-2.21l-15-.79c-5-.27-10-.54-15-.69-10-.34-20-.8-30-.93s-20-.47-30-.46c-40.06-.3-80.15.08-120.15,2.14l-15,.83c-5,.26-10,.69-15,1-10,.66-20,1.61-29.94,2.47-19.94,1.87-39.86,4.07-59.81,6-5,.47-10,1-15,1.43l-15,1.29c-5,.43-10,.73-15,1.1s-10,.73-15,1l-15,.81c-5,.29-10,.4-15,.61l-15,.56-15,.32-15,.32-15,.1-15,.11c-5,0-10,0-15-.06q-30.06-.09-60.13-1.07l-15-.55c-5-.16-10-.51-15-.75s-10-.48-15-.86l-15-1.05c-20-1.53-39.95-3.48-59.88-5.58S920,64.92,900.07,63.38l-15-1.06c-5-.38-10-.58-15-.87s-10-.6-15-.76l-15-.57q-30-1-60.07-1.11c-5,0-10-.11-15-.06L750,59l-15,.09-15,.31-15,.31-15,.54c-5,.21-10,.32-15,.6l-15,.8c-5,.24-10,.6-15,1s-10,.66-15,1.09L615,65c-5,.43-10,.95-15,1.42-19.94,1.94-39.86,4.15-59.82,6-10,.83-20,1.77-30,2.4-5,.32-10,.74-15,1l-15,.79c-40.06,2-80.16,2.27-120.24,1.87-10,0-20-.32-30.06-.53s-20-.64-30.05-1c-5-.16-10-.44-15-.72l-15-.83-15-1.08c-2.5-.18-5-.34-7.49-.55l-7.49-.65c-20-1.68-39.9-3.9-59.83-6l-14.95-1.52c-5-.48-10-1-15-1.42l-15-1.3-15-1.09c-5-.39-10-.67-15-.94l-15-.84c-10-.36-20-.84-30-1.12s-20-.52-30-.64Z"/><path class="cls-5" d="M28.5,86.5l30.06.14c10,.08,20,.35,30.05.52s20,.67,30.05,1l15,.78c5,.25,10,.5,15,.88l15,1,15,1.25c5,.39,10,.89,15,1.36l15,1.45c19.94,2,39.86,4.14,59.83,5.74,10,.9,20,1.47,30,2.2l15,.79c5,.27,10,.55,15,.69,10,.34,20,.8,30,.93s20,.47,30,.46c40.06.31,80.15-.07,120.15-2.14l15-.82c5-.27,10-.69,15-1,10-.65,20-1.6,29.94-2.46,19.94-1.88,39.86-4.08,59.81-6.05,5-.47,10-1,15-1.43l15-1.29c5-.43,10-.73,15-1.1s10-.73,15-1l15-.82c5-.28,10-.4,15-.61l15-.56,15-.32,15-.31,15-.11,15-.11c5,0,10,0,15,.06q30.06.09,60.13,1.07l15,.55c5,.16,10,.51,15,.75s10,.49,15,.86l15,1.05c20,1.53,39.95,3.49,59.88,5.58s39.86,4.07,59.83,5.61l15,1.06c5,.38,10,.57,15,.87s10,.59,15,.76l15,.56q30,1,60.07,1.12c5,0,10,.11,15,.06l15-.09,15-.1,15-.3,15-.31,15-.54c5-.21,10-.32,15-.6l15-.81c5-.23,10-.6,15-1s10-.66,15-1.09l15-1.27c5-.44,10-.95,15-1.42,19.94-1.95,39.86-4.15,59.82-6,10-.84,20-1.77,30-2.4,5-.33,10-.74,15-1l15-.8c40-2,80.16-2.26,120.24-1.86,10,0,20,.32,30.06.53s20,.63,30.05,1c5,.15,10,.44,15,.72l15,.83,15,1.07c5,.33,10,.76,15,1.21,20,1.68,39.9,3.9,59.83,6l15,1.51c5,.49,10,1,15,1.43l15,1.3,15,1.09c5,.39,10,.67,15,.94l15,.84c10,.36,20,.84,30,1.12s20,.52,30,.64l30.06.26-30.06-.14c-10-.08-20-.35-30-.52s-20-.67-30.05-1l-15-.77c-5-.26-10-.51-15-.88l-15-1-15-1.25c-5-.39-10-.89-15-1.36l-15-1.45c-19.94-2-39.86-4.14-59.83-5.73-10-.91-20-1.48-30-2.21l-15-.79c-5-.27-10-.54-15-.69-10-.34-20-.8-30-.93s-20-.47-30-.46c-40.06-.3-80.15.08-120.15,2.14l-15,.83c-5,.26-10,.69-15,1-10,.66-20,1.61-29.94,2.47-19.94,1.87-39.86,4.07-59.81,6-5,.47-10,1-15,1.43l-15,1.29c-5,.43-10,.73-15,1.1s-10,.73-15,1l-15,.81c-5,.29-10,.4-15,.61l-15,.56-15,.32-15,.32-15,.1-15,.11c-5,0-10,0-15-.06q-30.06-.09-60.13-1.07l-15-.55c-5-.16-10-.51-15-.75s-10-.48-15-.86l-15-1.05c-20-1.53-39.95-3.48-59.88-5.58s-39.86-4.07-59.83-5.61l-15-1.06c-5-.38-10-.58-15-.87s-10-.6-15-.76l-15-.57q-30-1-60.07-1.11c-5,0-10-.11-15-.06l-15,.09-15,.09-15,.31-15,.31-15,.54c-5,.21-10,.32-15,.6l-15,.8c-5,.24-10,.6-15,1s-10,.66-15,1.09l-15,1.27c-5,.43-10,.95-15,1.42-19.94,1.94-39.86,4.15-59.82,6-10,.83-20,1.77-30,2.4-5,.32-10,.74-15,1l-15,.79c-40.06,2-80.16,2.27-120.24,1.87-10,0-20-.32-30.06-.53s-20-.64-30.05-1c-5-.16-10-.44-15-.72l-15-.83-15-1.08c-2.5-.18-5-.34-7.49-.55l-7.49-.65c-20-1.68-39.9-3.9-59.83-6l-14.95-1.52c-5-.48-10-1-15-1.42l-15-1.3-15-1.09c-5-.39-10-.67-15-.94l-15-.84c-10-.36-20-.84-30-1.12s-20-.52-30-.64Z"/><path class="cls-5" d="M0,115l30.06.14c10,.08,20,.35,30.05.52s20,.67,30.05,1l15,.78c5,.25,10,.5,15,.88l15,1,15,1.25c5,.39,10,.89,15,1.36l15,1.45c19.94,2,39.86,4.14,59.83,5.74,10,.9,20,1.47,30,2.2l15,.79c5,.27,10,.55,15,.69,10,.34,20,.8,30,.93s20,.47,30,.46c40.06.31,80.15-.07,120.15-2.14l15-.82c5-.27,10-.69,15-1,10-.65,20-1.6,29.94-2.46,19.94-1.88,39.86-4.08,59.81-6.05,5-.47,10-1,15-1.43l15-1.29c5-.43,10-.73,15-1.1s10-.73,15-1l15-.82c5-.28,10-.4,15-.61l15-.56,15-.32,15-.31,15-.11,15-.11c5,0,10,0,15,.06q30.06.09,60.13,1.07l15,.55c5,.16,10,.51,15,.75s10,.49,15,.86l15,1.05c20,1.53,39.95,3.49,59.88,5.58s39.86,4.07,59.83,5.61l15,1.06c5,.38,10,.57,15,.87s10,.59,15,.76l15,.56q30,1,60.07,1.12c5,0,10,.11,15,.06l15-.09,15-.1,15-.3,15-.31,15-.54c5-.21,10-.32,15-.6l15-.81c5-.23,10-.6,15-1s10-.66,15-1.09l15-1.27c5-.44,10-.95,15-1.42,19.94-1.95,39.86-4.15,59.82-6,10-.84,20-1.77,30-2.4,5-.33,10-.74,15-1l15-.8c40-2,80.16-2.26,120.24-1.86,10,0,20,.32,30.06.53s20,.63,30.05,1c5,.15,10,.44,15,.72l15,.83,15,1.07c5,.33,10,.76,15,1.21,20,1.68,39.9,3.9,59.83,6l15,1.51c5,.49,10,1,15,1.43l15,1.3,15,1.09c5,.39,10,.67,15,.94l15,.84c10,.36,20,.84,30,1.12s20,.52,30,.64L1920,135l-30.06-.14c-10-.08-20-.35-30-.52s-20-.67-30.05-1l-15-.77c-5-.26-10-.51-15-.88l-15-1-15-1.25c-5-.39-10-.89-15-1.36l-15-1.45c-19.94-2-39.86-4.14-59.83-5.73-10-.91-20-1.48-30-2.21l-15-.79c-5-.27-10-.54-15-.69-10-.34-20-.8-30-.93s-20-.47-30-.46c-40.06-.3-80.15.08-120.15,2.14l-15,.83c-5,.26-10,.69-15,1-10,.66-20,1.61-29.94,2.47-19.94,1.87-39.86,4.07-59.81,6-5,.47-10,1-15,1.43l-15,1.29c-5,.43-10,.73-15,1.1s-10,.73-15,1l-15,.81c-5,.29-10,.4-15,.61l-15,.56-15,.32-15,.32-15,.1-15,.11c-5,.05-10,0-15-.06q-30.06-.09-60.13-1.07l-15-.55c-5-.16-10-.51-15-.75s-10-.48-15-.86l-15-1.05c-20-1.53-39.95-3.48-59.88-5.58s-39.86-4.07-59.83-5.61l-15-1.06c-5-.38-10-.58-15-.87s-10-.6-15-.76l-15-.57q-30-1-60.07-1.11c-5,0-10-.11-15-.06L750,116l-15,.09-15,.31-15,.31-15,.54c-5,.21-10,.32-15,.6l-15,.8c-5,.24-10,.6-15,1s-10,.66-15,1.09L615,122c-5,.43-10,.95-15,1.42-19.94,1.94-39.86,4.15-59.82,6-10,.83-20,1.77-30,2.4-5,.32-10,.74-15,1l-15,.79c-40.06,2-80.16,2.27-120.24,1.87-10,0-20-.32-30.06-.53s-20-.64-30.05-1c-5-.16-10-.44-15-.72l-15-.83-15-1.08c-2.5-.18-5-.34-7.49-.55l-7.49-.65c-20-1.68-39.9-3.9-59.83-6l-14.95-1.52c-5-.48-10-1-15-1.42l-15-1.3-15-1.09c-5-.39-10-.67-15-.94l-15-.84c-10-.36-20-.84-30-1.12s-20-.52-30-.64Z"/><path class="cls-5" d="M28.5,143.5l30.06.14c10,.08,20,.35,30.05.52s20,.67,30.05,1l15,.78c5,.25,10,.5,15,.88l15,1,15,1.25c5,.39,10,.89,15,1.36l15,1.45c19.94,2,39.86,4.14,59.83,5.74,10,.9,20,1.47,30,2.2l15,.79c5,.27,10,.55,15,.69,10,.34,20,.8,30,.93s20,.47,30,.46c40.06.31,80.15-.07,120.15-2.14l15-.82c5-.27,10-.69,15-1,10-.65,20-1.6,29.94-2.46,19.94-1.88,39.86-4.08,59.81-6,5-.47,10-1,15-1.43l15-1.29c5-.43,10-.73,15-1.1s10-.73,15-1l15-.82c5-.28,10-.4,15-.61l15-.56,15-.32,15-.31,15-.11,15-.11c5,0,10,0,15,.06q30.06.09,60.13,1.07l15,.55c5,.16,10,.51,15,.75s10,.49,15,.86l15,1.05c20,1.53,39.95,3.49,59.88,5.58s39.86,4.07,59.83,5.61l15,1.06c5,.38,10,.57,15,.87s10,.59,15,.76l15,.56q30,1,60.07,1.12c5,0,10,.11,15,.06l15-.09,15-.1,15-.3,15-.31,15-.54c5-.21,10-.32,15-.6l15-.81c5-.23,10-.6,15-1s10-.66,15-1.09l15-1.27c5-.44,10-1,15-1.42,19.94-1.95,39.86-4.15,59.82-6,10-.84,20-1.77,30-2.4,5-.33,10-.74,15-1l15-.8c40-2,80.16-2.26,120.24-1.86,10,0,20,.32,30.06.53s20,.63,30.05,1c5,.15,10,.44,15,.72l15,.83,15,1.07c5,.33,10,.76,15,1.21,20,1.68,39.9,3.9,59.83,6l15,1.51c5,.49,10,1,15,1.43l15,1.3,15,1.09c5,.39,10,.67,15,.94l15,.84c10,.36,20,.84,30,1.12s20,.52,30,.64l30.06.26-30.06-.14c-10-.08-20-.35-30-.52s-20-.67-30.05-1l-15-.77c-5-.26-10-.51-15-.88l-15-1-15-1.25c-5-.39-10-.89-15-1.36l-15-1.45c-19.94-2-39.86-4.14-59.83-5.73-10-.91-20-1.48-30-2.21l-15-.79c-5-.27-10-.54-15-.69-10-.34-20-.8-30-.93s-20-.47-30-.46c-40.06-.3-80.15.08-120.15,2.14l-15,.83c-5,.26-10,.69-15,1-10,.66-20,1.61-29.94,2.47-19.94,1.87-39.86,4.07-59.81,6-5,.47-10,1-15,1.43l-15,1.29c-5,.43-10,.73-15,1.1s-10,.73-15,1l-15,.81c-5,.29-10,.4-15,.61l-15,.56-15,.32-15,.32-15,.1-15,.11c-5,.05-10,0-15-.06q-30.06-.09-60.13-1.07l-15-.55c-5-.16-10-.51-15-.75s-10-.48-15-.86l-15-1.05c-20-1.53-39.95-3.48-59.88-5.58s-39.86-4.07-59.83-5.61l-15-1.06c-5-.38-10-.58-15-.87s-10-.6-15-.76l-15-.57q-30-1-60.07-1.11c-5,0-10-.11-15-.06l-15,.09-15,.09-15,.31-15,.31-15,.54c-5,.21-10,.32-15,.6l-15,.8c-5,.24-10,.6-15,1s-10,.66-15,1.09l-15,1.27c-5,.43-10,1-15,1.42-19.94,1.94-39.86,4.15-59.82,6-10,.83-20,1.77-30,2.4-5,.32-10,.74-15,1l-15,.79c-40.06,2-80.16,2.27-120.24,1.87-10,0-20-.32-30.06-.53s-20-.64-30.05-1c-5-.16-10-.44-15-.72l-15-.83-15-1.08c-2.5-.18-5-.34-7.49-.55l-7.49-.65c-20-1.68-39.9-3.9-59.83-6l-14.95-1.52c-5-.48-10-1-15-1.42l-15-1.3-15-1.09c-5-.39-10-.67-15-.94l-15-.84c-10-.36-20-.84-30-1.12s-20-.52-30-.64Z"/></svg>